<?xml version="1.0" encoding="UTF-8"?>
<svg id="Layer_2" data-name="Layer 2" xmlns="http://www.w3.org/2000/svg" viewBox="0 0 2889.38 3300">
  <defs>
    <style>
      .cls-1 {
        fill: #a4df07;
      }

      .cls-2 {
        fill: #6cb800;
      }

      .cls-3 {
        fill: #83cc00;
      }
    </style>
  </defs>
  <g id="_Ñëîé_1" data-name="Ñëîé 1">
    <g>
      <path class="cls-3" d="M2871.31,1507.78c-38.91,124.41-140.54,226.45-263,269.86-10.63,101.1-70.13,197.51-159.03,247.68-99.6,56.21-229.73,50.86-326.36-9.28-9.56,100.24-68.23,196.55-157.23,244.79-96.61,52.37-221.23,43.85-313.3-14.84-10.25,53.88-30.24,105.7-64.84,147.78-44.31,53.9-116.07,88.42-184.27,77.66,7.59,32.47,4.36,67.44-8.6,98.21,27.64,2.87,54.13,18.75,70.49,41.58,21.56,30.06,26.6,70.11,18.04,106.1-5.98,25.16-18.06,48.42-33.68,69.14,33.41,29.53,48.07,79.19,35.11,122.01-10.47,34.59-38.38,62.88-72.01,75.68,9.46,34.93,1.3,74.63-21.23,102.96-4.87,41.98,2.59,85.43,21.79,123.12,19.1,37.52,49.66,69.02,86.26,89.76h-.58c-42.58-6.74-83.29-25.59-115.38-54.41-42.87-38.48-69.72-94.18-73.68-151.6-22.98-19.83-38.4-48.42-41.83-78.61-3.81-33.71,7.36-68.77,29.76-94.2.3-.35.61-.69.91-1.02-1.24-.33-2.48-.68-3.71-1.04h-.02c-29.91-22.32-51.7-55.62-59.32-92.2-2.18-10.45-3.17-21.11-3.07-31.78.18-19.46,4.08-38.91,11.32-56.99-23.84,13.67-53.88,16.81-79.62,6.85-15.75-6.08-29.42-16.89-39.57-30.36-10.24-19.98-14.05-43.4-11.44-65.82,3.27-28.13,15.96-54.59,33.78-76.73.68-.84,1.37-1.68,2.06-2.53-4.85-10.47-8.3-21.59-10.2-32.97-1.78-10.6-2.25-21.41-1.25-32.13,2.15-23.34,11.06-45.96,25.13-64.7,6.87.5,13.77.56,20.67.17,4.87-.28,9.72-.79,14.53-1.52h.02c57.52-8.63,109.35-48.27,134.46-100.62,16.52-43.37,29.1-96.48,21.79-124.26-.68,70.06-66.64,136.66-134.13,155.43-58.11,16.18-124.11-4.28-164.82-48.34-9,12.78-19.76,24.35-31.84,34.45-42.25,35.36-100.57,53.03-155.28,43.4-88.3-15.53-159.13-94.51-173.52-183-10.9-67.02,8.39-136.66,47.35-192.54-125.37,15.4-260.22-44.44-326.09-153.41-72.22-119.46-53.65-284.92,38.17-388.76-72.57,36.52-130.96,103.74-162.63,181.1-81.06-98.46-149.62-209.21-176.43-333.32-30.03-138.9.58-297.1,104.71-393.81,62.12-57.7,144.65-89.29,228.02-104.7,163.93-30.28,338.06-.23,483.01,81.83,33.55-102.44,132.53-181.11,240.41-188.48,52.76-3.6,105.74,9.99,151.61,36.15.02-.02.02,0,.03.02,50.48,28.77,92.37,72.8,115.91,125.89,15.93-35.2,36.73-68.16,61.4-97.96,59.98-72.51,142.81-126.36,234.42-148.28,146.69-35.13,310.43,12.91,414.89,121.73,72.82,75.84,114.98,179.28,119.92,284.14,35.97-33.68,80.48-58.9,127.96-72.31t.03-.02c1.47-.26,2.95-.51,4.42-.74,1.47-.25,2.96-.48,4.42-.69.88-.13,1.75-.26,2.62-.4,1.34-.2,2.66-.38,3.99-.56.13-.02.25-.03.36-.03,1.32-.2,2.64-.36,3.96-.51,4.39-.56,8.8-1.02,13.21-1.44,1.63-.15,3.27-.3,4.9-.41,1.67-.15,3.35-.26,5.04-.38,7.74-.51,15.5-.83,23.26-.92,1.73-.02,3.48-.03,5.23-.03,107.59-.02,215.6,40.63,293.36,115.35,111.27,106.91,155.28,278.53,109.2,425.79Z"/>
      <path class="cls-2" d="M1498.89,3300c-48.3.2-96.66-16.94-133.65-48.04-40.43-34.01-66.71-84.23-72.08-136.74-46.74-16.97-79.42-66.71-76.35-116.37,2.21-36.17,23.24-70.06,53.26-90.1,9.05,4.92,18.65,8.78,28.61,11.41-23.01,25.51-34.54,61.07-30.67,95.22,3.43,30.19,18.85,58.79,41.83,78.61,3.96,57.42,30.8,113.12,73.68,151.6,32.09,28.82,72.8,47.68,115.38,54.41Z"/>
      <path class="cls-1" d="M1797.33,1150.71c-68.58-110.11-197.62-181.36-327.69-177.38-136.89,4.16-267.57,91.41-325.47,215.24,5.7-22.98,13.97-45.22,24.47-66.38-56.33-11.01-116.62-.89-166.13,28.18-26.86,15.77-50.38,37.03-69.14,61.89,14.51-39.79,37.79-75.96,70.94-101.92,50.37-39.46,125.7-49.87,179.18-15.01,50.75-82.86,136.34-145.21,231.71-163.62,11.21-2.16,22.55-3.73,33.99-4.64.13-.02.26-.02.4-.03,147.59-11.62,296.53,85.22,347.74,223.67Z"/>
      <path class="cls-2" d="M2871.31,1507.78c-38.91,124.41-140.54,226.45-263,269.86-10.63,101.1-70.13,197.51-159.03,247.68-99.6,56.21-229.73,50.86-326.36-9.28-9.56,100.24-68.23,196.55-157.23,244.79-96.61,52.37-221.23,43.85-313.3-14.84-10.25,53.88-30.24,105.7-64.84,147.78-44.31,53.9-116.07,88.42-184.27,77.66,7.59,32.47,4.36,67.44-8.6,98.21,27.64,2.87,54.13,18.75,70.49,41.58,21.56,30.06,26.6,70.11,18.04,106.1-5.98,25.16-18.06,48.42-33.68,69.14,33.41,29.53,48.07,79.19,35.11,122.01-10.47,34.59-38.38,62.88-72.01,75.68-.26.1-.54.2-.81.3,32.72-20.44,54.78-58.18,54.44-96.97-.36-42.06-27.01-82.43-64.68-100.69,28.66-35.76,37.01-87.41,19.68-130.05-15.83-38.91-52.23-68.28-93.06-77.39,40.66-52.05,56.97-122.36,44.11-187.09,84.97-1.07,163.35-60.55,200.66-137.32,28.51-58.69,35.74-125.37,28.59-190.64,36.14,66.78,115.89,108.76,193.25,106.05,91.19-3.2,174.97-59.38,227.95-133.69,48.11-67.5,73.61-148.44,87.61-230.43,17.68,59.74,56.11,113.63,109.12,146.22,59.96,36.86,138.23,44.34,202.23,15.06,64-29.27,110.34-96.16,110.64-166.54.18-41.06-16.24-81.68-43.38-112.29,92.13-30.67,172.5-112.26,204.94-217.8,44.16-143.64-4.46-318.53-112.54-404.82-90.38-72.16-215.44-76.85-311.96-18.11-2.94,1.77-5.84,3.62-8.72,5.51,2.81-2.84,5.68-5.63,8.6-8.37,35.97-33.68,80.48-58.9,127.96-72.31t.03-.02c1.47-.26,2.95-.51,4.42-.74,1.47-.25,2.96-.48,4.42-.69.88-.13,1.75-.26,2.62-.4,1.34-.2,2.66-.38,3.99-.56.13-.02.25-.03.36-.03,1.32-.2,2.64-.36,3.96-.51,4.39-.56,8.8-1.02,13.21-1.44,1.63-.15,3.27-.3,4.9-.41,1.67-.15,3.35-.26,5.04-.38,7.74-.51,15.5-.83,23.26-.92,1.73-.02,3.48-.03,5.23-.03,107.59-.02,215.6,40.63,293.36,115.35,111.27,106.91,155.28,278.53,109.2,425.79Z"/>
      <path class="cls-3" d="M267.37,509.26c32.45,13.9,64.4,38.3,82.47,65.61,28.5,43.1,18.12,87.02-22.52,94.96-40.65,7.92-105.45-21.42-139.92-63.37-.24-.28-.46-.55-.68-.84,11.81,5.36,23.77,9.14,35.08,10.77,42.36,6.16,71.3-16.3,69.34-50.3-.99-17.18-9.33-36.57-22.65-55.29-.37-.51-.72-1.03-1.11-1.54Z"/>
      <path class="cls-1" d="M190.05,502.59c20.18-7.7,49.61-3.82,78.44,8.21,13.32,18.72,21.66,38.11,22.65,55.29,1.96,34-26.98,56.45-69.34,50.3-11.31-1.63-23.28-5.41-35.08-10.77-33.75-41.75-32.34-89.4,3.32-103.02Z"/>
      <path class="cls-2" d="M912.2,2096.06c-66.3-3.66-133.06-15.58-179.45-60.93-35.99-35.18-53.5-85.93-57.53-136.11-.79-9.74-1.11-19.5-1.04-29.25,15.6,49.62,44.09,96.23,83.55,134.78,41.77,40.81,95.49,72.22,154.47,91.52Z"/>
      <path class="cls-2" d="M1962.61,1620.44c-82.3,58.97-192.74,75.76-289.28,46.09.94-.81,1.85-1.65,2.76-2.51,92.3,1.3,185.04-27.4,259.78-81.72,80.1-58.19,138.61-145.14,163.38-240.91,3.75,107.68-48.91,216.21-136.64,279.04Z"/>
      <path class="cls-2" d="M1731.11,1788.41s-.12.07-.17.1c-52.88,31.91-116.01,46.42-177.53,41.32,60.19,26.03,132.73,23.01,189.95-9.36,29.34-16.6,55.37-42.07,73.46-70.36,9.56-14.96,17.34-31.08,23.04-47.9,5.46-16.12,4.27-37.03,10.61-51.99-24.1,56.95-66.4,106.18-119.36,138.19Z"/>
      <path class="cls-3" d="M2258.64,2455.49c-29.39-22.15-48.59-67.68-56.12-102.7-5.27-24.57-2.67-64.76,27.91-71.62,1.13-.27,2.29-.46,3.48-.57,11.23-1.21,22.23,4.27,30.96,11.48,29.02,23.97,55.92,56.62,70.4,91.48,9.58,23.1,13.24,52.37-3.49,70.98-17.91,19.91-51.75,17.08-73.13.96Z"/>
      <path class="cls-2" d="M2258.64,2455.49c-29.39-22.15-48.59-67.68-56.12-102.7-5.27-24.57-2.67-64.76,27.91-71.62,1.13-.27,2.29-.46,3.48-.57,10.57-1.14,20.94,3.66,29.41,10.24-7.43,4.57-13.46,11.9-16.84,20.05-5.82,14.05-5.11,29.92-2.6,44.92,7.17,42.69,29.12,82.49,60.41,112.33-15.63,1.89-32.86-3-45.64-12.64Z"/>
      <path class="cls-3" d="M1439.83,400.26c-6.1,10.63-13.59,21.82-25.25,27-5.82,2.58-12.88,3.07-18.43-.07-7.06-4-10.02-12.7-10.82-20.78-4.95-49.43-4.06-98,9.51-146.2,5.6-19.81,13.57-40.06,29.38-53.25,15.79-13.21,41.34-16.69,56.46-2.73,15.35,14.19,14.02,38.54,10.06,59.06-9.27,48.04-26.55,94.53-50.9,136.97Z"/>
      <path class="cls-1" d="M1486.2,284.06c-5.1,7.91-10.6,15.56-16.5,22.91-9.6,11.97-21.92,23.95-37.25,24.38-23.11.66-37.63-24.23-43.37-46.96,1.58-8.09,3.49-16.14,5.76-24.19,5.6-19.81,13.57-40.06,29.38-53.25,15.79-13.21,41.34-16.69,56.46-2.73,15.35,14.19,14.02,38.54,10.06,59.06-1.34,6.95-2.85,13.9-4.54,20.77Z"/>
      <path class="cls-1" d="M2590.94,862.66c-12.94,11.21-30.5,15.71-47.21,17.03-7.74.61-42.81,3.63-48.2-.62-4.4-3.46-7.8-7.96-9.38-13.37-5.93-20.31,14.77-37.76,32.78-48.84,12.81-7.88,25.99-15.91,40.78-18.58,14.79-2.67,31.76,1.19,40.63,13.34,11.2,15.35,4.95,38.57-9.41,51.04Z"/>
      <path class="cls-1" d="M1217.84,47.62c-.92,18.25-14.48,38.04-35.11,30.22-14.24-5.4-18.97-23.12-19.54-38.34-.46-12.22,1.06-25.8,10.11-34.03,20.09-18.24,37.42,13.68,42.95,29.67,1.31,3.8,1.82,8.1,1.6,12.48Z"/>
      <path class="cls-1" d="M2379.9,976.19c.71-144.66-61.84-289.44-169.97-385.99-124.69-111.32-306.27-155.16-468.02-113.02-131.94,34.39-247.46,125.17-315.15,243.24-72.44-65.29-174.1-97.5-270.89-84.59-94.23,12.58-181.69,67.64-234.97,146.18-162.86-80.45-353.91-102.77-530.81-61.3-116.15,27.22-229.45,84.04-301.76,178.94C14.68,996.35-9.56,1124.47,3.27,1245.35c10.88,102.52,47.54,203.19,111.14,284.33,45.7,58.29,168.06,154.06,177.02,132.2-81.06-98.46-149.62-209.21-176.43-333.32-30.03-138.9.58-297.1,104.71-393.81,62.12-57.7,144.65-89.29,228.02-104.7,163.93-30.28,338.06-.23,483.01,81.83,33.55-102.44,132.53-181.11,240.41-188.48,52.76-3.6,105.74,9.99,151.61,36.15.02-.02.02,0,.03.02,51.13,42.82,85.83,105.72,92.41,172.13,11.21-2.16,22.55-3.73,33.99-4.64,11.09-60.22,37.01-117.66,74.57-166.01,57.28-59.1,130.67-102.67,210.75-121.83,146.69-35.13,310.43,12.91,414.89,121.73,72.82,75.84,114.98,179.28,119.92,284.14,35.97-33.68,80.48-58.9,127.96-72.31-5.83.99-11.62,2.13-17.38,3.4Z"/>
      <path class="cls-1" d="M1235.63,2826.91c-2.18-10.45-3.17-21.11-3.07-31.78.18-19.46,4.08-38.91,11.32-56.99-23.84,13.67-53.88,16.81-79.62,6.85-15.75-6.08-29.42-16.89-39.57-30.36-12.07-15.98-19.22-35.71-19.08-55.75.15-23.04,8.96-44.75,22.23-63.82,9.32-13.39,26.3-19.53,41.9-14.74.09.03.18.06.28.09-17.57-27.58-24.25-61.91-18.33-94.08,5.91-32.15,24.38-61.85,50.62-81.37l-9.87-13.8c-26.94,20.36-46.71,50.04-55.1,82.77-5.37,20.88-6.04,42.91-2.24,64.14-44.49,18.03-78.57,61.28-83.69,109.26-5.89,55.32,27.14,112.62,77.95,135.22,22.43,9.97,46.7,13.42,71.37,13.7.43,17.9,4.39,35.69,11.92,51.94,11.9,25.7,32.55,47.1,57.43,60.55,7.91,4.31,16.24,7.79,24.88,10.37-29.91-22.32-51.7-55.62-59.32-92.2Z"/>
      <path class="cls-2" d="M1332.43,2337.8c-25.11,52.35-76.96,91.99-134.48,100.62-4.8.73-9.66,1.24-14.53,1.52-6.9.4-13.8.33-20.67-.17-40.74-2.94-80.07-21.15-109.96-49.16-36.88,69.96-109.53,121.35-188.68,128.7-98.08,9.1-198.76-50.12-238.48-140.24-29.15-66.15-23.86-145.29,9.84-208.92-112.03-1.21-224.35-51.24-294.05-139.51-53.54-67.78-79.31-154.78-77.16-241.01.88-20.12,3.15-40.23,6.98-60.21,4.41-23.01,11.21-45.7,20.17-67.55,31.66-77.36,90.05-144.58,162.63-181.1-91.82,103.84-110.39,269.3-38.17,388.76,65.87,108.97,200.73,168.82,326.09,153.41-38.96,55.88-58.24,125.51-47.35,192.54,14.4,88.49,85.22,167.46,173.52,183,54.71,9.62,113.03-8.04,155.28-43.4,12.08-10.1,22.85-21.68,31.84-34.45,40.71,44.06,106.71,64.51,164.82,48.34,67.49-18.77,133.45-85.37,134.13-155.43,7.31,27.78-5.27,80.89-21.79,124.26Z"/>
    </g>
  </g>
</svg>